<svg width="26" height="26" viewBox="0 0 26 26" fill="none" xmlns="http://www.w3.org/2000/svg">
<path d="M13.0011 2.16672C18.9843 2.16672 23.8344 7.0168 23.8344 13.0001C23.8344 18.9833 18.9843 23.8334 13.0011 23.8334C11.0866 23.8365 9.20578 23.3298 7.55191 22.3655L2.17207 23.8334L3.63674 18.4514C2.67159 16.797 2.16454 14.9154 2.16774 13.0001C2.16774 7.0168 7.01782 2.16672 13.0011 2.16672ZM9.30907 7.90838L9.09241 7.91705C8.95214 7.92559 8.81505 7.96244 8.68941 8.02538C8.57189 8.09193 8.46461 8.17513 8.37091 8.27238C8.24091 8.3948 8.16724 8.50097 8.08816 8.60388C7.68746 9.12486 7.47171 9.76447 7.47499 10.4217C7.47716 10.9526 7.61582 11.4693 7.83249 11.9525C8.27557 12.9296 9.00466 13.9642 9.96666 14.923C10.1985 15.1537 10.426 15.3856 10.6708 15.6011C11.8662 16.6536 13.2906 17.4125 14.8308 17.8176L15.4462 17.9119C15.6466 17.9227 15.847 17.9076 16.0485 17.8978C16.364 17.8815 16.6721 17.7961 16.9509 17.6476C17.0928 17.5745 17.2312 17.4949 17.3658 17.4092C17.3658 17.4092 17.4124 17.3789 17.5012 17.3117C17.6475 17.2034 17.7374 17.1265 17.8587 16.9997C17.9487 16.9066 18.0267 16.7971 18.0862 16.6726C18.1707 16.496 18.2552 16.1591 18.2899 15.8785C18.3159 15.664 18.3083 15.547 18.3051 15.4744C18.3007 15.3585 18.2043 15.2382 18.0992 15.1873L17.4687 14.9046C17.4687 14.9046 16.5262 14.494 15.9499 14.2318C15.8896 14.2055 15.825 14.1904 15.7592 14.1874C15.6851 14.1798 15.6102 14.1881 15.5396 14.2118C15.469 14.2356 15.4042 14.2741 15.3497 14.325C15.3443 14.3228 15.2717 14.3846 14.4885 15.3336C14.4435 15.394 14.3816 15.4396 14.3106 15.4647C14.2396 15.4898 14.1627 15.4932 14.0898 15.4744C14.0193 15.4555 13.9501 15.4316 13.8829 15.4029C13.7486 15.3466 13.702 15.3249 13.6099 15.2859C12.9881 15.0146 12.4125 14.648 11.9037 14.1993C11.7672 14.0801 11.6404 13.9501 11.5104 13.8245C11.0842 13.4163 10.7128 12.9546 10.4054 12.4508L10.3415 12.3479C10.2956 12.2787 10.2585 12.2041 10.231 12.1258C10.1898 11.9666 10.2971 11.8387 10.2971 11.8387C10.2971 11.8387 10.5603 11.5506 10.6827 11.3946C10.8019 11.2429 10.9027 11.0956 10.9677 10.9905C11.0955 10.7846 11.1356 10.5734 11.0684 10.4098C10.7651 9.6688 10.4509 8.93105 10.1281 8.19872C10.0642 8.05355 9.87457 7.94955 9.70232 7.92897C9.64382 7.92247 9.58532 7.91597 9.52682 7.91163C9.38134 7.90441 9.23555 7.90585 9.09024 7.91597L9.30799 7.9073L9.30907 7.90838Z" fill="#1B1919"/>
</svg>
