<svg width="17" height="17" viewBox="0 0 17 17" fill="none" xmlns="http://www.w3.org/2000/svg">
<path d="M5.08781 6.86764L3.71605 8.2394C2.54447 9.41097 2.54447 11.3105 3.71605 12.482C4.88762 13.6536 6.78711 13.6536 7.95869 12.482L9.78711 10.6536C10.9587 9.48204 10.9587 7.58254 9.78711 6.41097C9.53918 6.16303 9.25864 5.96757 8.9593 5.82457L8.3729 6.41097C8.31192 6.47195 8.26046 6.53884 8.21853 6.60981C8.53397 6.70019 8.83154 6.86961 9.08001 7.11808C9.86106 7.89913 9.86106 9.16546 9.08001 9.9465L7.25158 11.7749C6.47053 12.556 5.2042 12.556 4.42315 11.7749C3.64211 10.9939 3.64211 9.72755 4.42315 8.9465L5.21576 8.1539C5.10356 7.73378 5.06091 7.29894 5.08781 6.86764Z" fill="#F5F5EF"/>
<path d="M6.95869 4.99676C5.78711 6.16833 5.78711 8.06782 6.95869 9.2394C7.20662 9.48733 7.48716 9.6828 7.7865 9.8258L8.5621 9.0502C8.23376 8.96252 7.92338 8.78988 7.66579 8.53229C6.88475 7.75124 6.88474 6.48491 7.66579 5.70386L9.49422 3.87544C10.2753 3.09439 11.5416 3.09439 12.3226 3.87544C13.1037 4.65648 13.1037 5.92281 12.3226 6.70386L11.53 7.49647C11.6422 7.91659 11.6849 8.35142 11.658 8.78273L13.0298 7.41097C14.2013 6.2394 14.2013 4.3399 13.0298 3.16833C11.8582 1.99676 9.95869 1.99676 8.78712 3.16833L6.95869 4.99676Z" fill="#F5F5EF"/>
</svg>
