<svg width="17" height="17" viewBox="0 0 17 17" fill="#3D55CC" xmlns="http://www.w3.org/2000/svg">
<path fill-rule="evenodd" clip-rule="evenodd" d="M6.73644 13.8252C6.73644 14.1013 6.9603 14.3252 7.23644 14.3252H13.8728C14.7012 14.3252 15.3728 13.6536 15.3728 12.8252V2.82519C15.3728 1.99677 14.7012 1.3252 13.8728 1.3252H3.8728C3.04438 1.3252 2.3728 1.99677 2.3728 2.8252V9.46156C2.3728 9.7377 2.59666 9.96156 2.8728 9.96156C3.14895 9.96156 3.3728 9.7377 3.3728 9.46156V2.8252C3.3728 2.54905 3.59666 2.3252 3.8728 2.3252H13.8728C14.1489 2.3252 14.3728 2.54905 14.3728 2.82519V12.8252C14.3728 13.1013 14.1489 13.3252 13.8728 13.3252H7.23644C6.9603 13.3252 6.73644 13.5491 6.73644 13.8252Z" fill="#F5F5EF"/>
<path fill-rule="evenodd" clip-rule="evenodd" d="M11.3728 5.8252C11.3728 5.54905 11.1489 5.3252 10.8728 5.3252H5.8728C5.59666 5.3252 5.3728 5.54905 5.3728 5.8252C5.3728 6.10134 5.59666 6.3252 5.8728 6.3252H9.6657L1.51925 14.4716C1.32399 14.6669 1.32399 14.9835 1.51925 15.1787C1.71451 15.374 2.03109 15.374 2.22636 15.1787L10.3728 7.0323V10.8252C10.3728 11.1013 10.5967 11.3252 10.8728 11.3252C11.1489 11.3252 11.3728 11.1013 11.3728 10.8252V5.8252Z" fill="#F5F5EF"/>
</svg>
