<svg width="22" height="22" viewBox="0 0 22 22" fill="none" xmlns="http://www.w3.org/2000/svg">
<path d="M2.35718 7.95456L10.7282 12.3082C10.8121 12.3519 10.9054 12.3747 11 12.3747C11.0947 12.3747 11.1879 12.3519 11.2719 12.3082L19.6429 7.95534V15.5178C19.6429 16.1701 19.3934 16.7976 18.9454 17.2717C18.4975 17.7458 17.8851 18.0306 17.2339 18.0675L17.0893 18.0714H4.91075C4.2585 18.0715 3.63096 17.8219 3.15685 17.374C2.68275 16.926 2.39803 16.3136 2.36111 15.6624L2.35718 15.5178V7.95456ZM4.91075 3.92856H17.0893C17.7416 3.92852 18.3691 4.17806 18.8432 4.62601C19.3173 5.07396 19.602 5.68635 19.639 6.33756L19.6429 6.48213V6.6267L11 11.121L2.35718 6.6267V6.48213C2.35714 5.82988 2.60668 5.20234 3.05463 4.72823C3.50258 4.25413 4.11497 3.96941 4.76618 3.93249L4.91075 3.92856Z" fill="#F5F5EF"/>
</svg>
